<?xml version="1.0" encoding="utf-8"?><svg xmlns="http://www.w3.org/2000/svg" xmlns:xlink="http://www.w3.org/1999/xlink"><symbol viewBox="0 0 424.06 424.06" id="aeroplane" xmlns="http://www.w3.org/2000/svg"><path d="M423.125 36.86l-.8-7.6c-1.6-15.6-14.4-27.6-30.4-28.8l-6.4-.4c-19.2-.8-38 6.4-51.6 20l-64 63.6-209.6-.4c-17.6 0-34.8 7.2-47.6 20l-8.8 8.8c-2.8 2.8-4 7.6-3.2 11.6 1.2 4 4 7.2 8 8.4l166.8 45.6-38.8 38.8-70.4 2.4c-7.2 0-14 2.8-19.2 8.4l-6.8 6.8c-2.8 2.8-4 7.2-3.2 11.2 1.2 4 4 6.8 7.6 8.4l89.6 34 36 92.8c1.6 4 5.2 6.8 9.2 7.2 4 .4 7.6-.8 10.4-4l7.2-7.2c4.8-4.8 7.6-11.2 8.4-19.2l2.4-70.8 39.2-38.4 45.2 167.2c1.2 4 4.4 7.2 8.4 8.4 1.2.4 2 .4 3.2.4 3.2 0 6.4-1.2 8.8-3.6l8.8-8.8c12.8-12.8 20-30 20-48v-209.6l62-62.4c14.8-14.4 22-34.8 19.6-54.8zm-30.8 43.6l-64.8 64.8c-1.6 1.6-2.4 3.6-2.4 5.6v212.8c0 14-5.6 26.8-15.2 36.8l-4 4-47.6-173.2c-.8-2.8-2.8-4.8-5.6-5.6-.8 0-1.2-.4-2-.4-2 0-4 .8-5.6 2.4l-51.2 50.4c-1.6 1.6-2.4 3.2-2.4 5.6l-2.4 73.6c0 2.4-.8 6-3.6 8.4l-2.8 2.8-34.8-90c-.8-2-2.4-3.6-4.8-4.4l-86.8-33.2 2.4-2.4c1.2-1.2 4.4-3.6 8.4-3.6l74-2.4c2 0 4-.8 5.2-2.4l50.8-50.8c2-2 2.8-4.8 2-7.6-.8-2.8-2.8-4.8-5.6-5.6l-173.6-47.6 4-4c9.6-9.6 22.8-15.2 36.4-15.2l212.8.4c2 0 4-.8 5.6-2.4l66.4-66c10.4-10.4 24.8-16 39.6-15.2l6.4.4c8 .4 14.4 6.8 15.2 14.4l.8 7.6c1.6 15.6-3.6 30.8-14.8 42z"/></symbol><symbol viewBox="0 0 512.001 512.001" id="checklist" xmlns="http://www.w3.org/2000/svg"><path d="M400.003 152H256.001c-5.523 0-10 4.477-10 10s4.477 10 10 10h144.002c5.523 0 10-4.477 10-10s-4.477-10-10-10zm-34.992 50.931c-1.86-1.86-4.44-2.93-7.07-2.93s-5.21 1.07-7.07 2.93c-1.86 1.86-2.93 4.44-2.93 7.07s1.07 5.21 2.93 7.07 4.44 2.93 7.07 2.93 5.21-1.07 7.07-2.93c1.86-1.86 2.93-4.44 2.93-7.07s-1.07-5.21-2.93-7.07zm-101.95-157c-1.86-1.86-4.44-2.93-7.07-2.93s-5.21 1.07-7.07 2.93c-1.86 1.86-2.93 4.44-2.93 7.07s1.07 5.21 2.93 7.07c1.86 1.86 4.44 2.93 7.07 2.93s5.21-1.07 7.07-2.93c1.86-1.86 2.93-4.44 2.93-7.07s-1.07-5.21-2.93-7.07zM315.878 200h-59.877c-5.523 0-10 4.477-10 10s4.477 10 10 10h59.877c5.523 0 10-4.477 10-10s-4.477-10-10-10zm84.125 60H256.001c-5.523 0-10 4.477-10 10s4.477 10 10 10h144.002c5.523 0 10-4.477 10-10s-4.477-10-10-10zm-34.992 50.931c-1.86-1.86-4.44-2.93-7.07-2.93s-5.21 1.07-7.07 2.93c-1.86 1.86-2.93 4.44-2.93 7.07s1.07 5.21 2.93 7.07 4.44 2.93 7.07 2.93 5.21-1.07 7.07-2.93c1.86-1.86 2.93-4.44 2.93-7.07s-1.07-5.21-2.93-7.07zM315.878 308h-59.877c-5.523 0-10 4.477-10 10s4.477 10 10 10h59.877c5.523 0 10-4.477 10-10s-4.477-10-10-10zm84.125 60H256.001c-5.523 0-10 4.477-10 10s4.477 10 10 10h144.002c5.523 0 10-4.477 10-10s-4.477-10-10-10zm-34.992 50.931c-1.86-1.86-4.44-2.93-7.07-2.93s-5.21 1.07-7.07 2.93c-1.86 1.86-2.93 4.44-2.93 7.07s1.07 5.21 2.93 7.07 4.44 2.93 7.07 2.93 5.21-1.07 7.07-2.93c1.86-1.86 2.93-4.44 2.93-7.07s-1.07-5.21-2.93-7.07zM315.878 416h-59.877c-5.523 0-10 4.477-10 10s4.477 10 10 10h59.877c5.523 0 10-4.477 10-10s-4.477-10-10-10z"/><path d="M419.243 39.001h-76.379C331.823 28.48 316.898 22 300.479 22h-8.76C285.022 8.742 271.263 0 256 0s-29.021 8.742-35.719 22H211.5c-16.419 0-31.343 6.48-42.384 17.001H92.759c-26.885 0-48.758 21.873-48.758 48.758v375.484c0 26.885 21.873 48.758 48.758 48.758h326.483c26.885 0 48.758-21.873 48.758-48.758V87.759c.001-26.885-21.872-48.758-48.757-48.758zM211.501 42h15.586a10 10 0 0 0 9.639-7.338C239.111 26.029 247.037 20 256.001 20c8.964 0 16.89 6.029 19.274 14.662A10 10 0 0 0 284.914 42h15.565c21.705 0 39.571 16.75 41.354 38.001H170.147C171.93 58.75 189.797 42 211.501 42zm236.5 421.244c0 15.857-12.901 28.758-28.758 28.758H92.759c-15.857 0-28.758-12.901-28.758-28.758V87.759c0-15.857 12.901-28.758 28.758-28.758h62.347a61.135 61.135 0 0 0-5.105 24.5v6.5c0 5.523 4.477 10 10 10H351.98c5.523 0 10-4.477 10-10v-6.5a61.139 61.139 0 0 0-5.105-24.5h62.368c15.857 0 28.758 12.901 28.758 28.758v375.485z"/><path d="M192.41 149.596c-3.905-3.905-10.237-3.905-14.142-.001l-42.762 42.763-13.173-13.174c-3.905-3.904-10.237-3.904-14.143 0-3.905 3.905-3.905 10.237 0 14.143l20.245 20.245a9.968 9.968 0 0 0 7.071 2.929 9.966 9.966 0 0 0 7.071-2.929l49.833-49.833c3.905-3.905 3.905-10.237 0-14.143zM168.001 368h-48c-5.523 0-10 4.477-10 10v48c0 5.523 4.477 10 10 10h48c5.523 0 10-4.477 10-10v-48c0-5.523-4.477-10-10-10zm-10 48h-28v-28h28v28zm10-156h-48c-5.523 0-10 4.477-10 10v48c0 5.523 4.477 10 10 10h48c5.523 0 10-4.477 10-10v-48c0-5.523-4.477-10-10-10zm-10 48h-28v-28h28v28z"/></symbol><symbol viewBox="0 0 472.811 472.811" id="phone" xmlns="http://www.w3.org/2000/svg"><path d="M358.75 0H114.061C97.555 0 84.128 13.428 84.128 29.934v412.944c0 16.505 13.428 29.934 29.934 29.934H358.75c16.506 0 29.934-13.428 29.934-29.934V29.934C388.683 13.428 375.256 0 358.75 0zM99.128 75.236h274.556v312.687H99.128V75.236zM114.061 15H358.75c8.234 0 14.934 6.699 14.934 14.934v35.302H99.128V29.934c0-8.235 6.699-14.934 14.933-14.934zM358.75 457.811H114.061c-8.234 0-14.934-6.699-14.934-14.934v-44.955h274.556v44.955c0 8.235-6.699 14.934-14.933 14.934z"/><path d="M236.406 404.552c-13.545 0-24.564 11.02-24.564 24.565s11.02 24.564 24.564 24.564 24.564-11.02 24.564-24.564-11.019-24.565-24.564-24.565zm0 39.129c-8.031 0-14.564-6.534-14.564-14.564 0-8.031 6.533-14.565 14.564-14.565s14.564 6.534 14.564 14.565c0 8.03-6.533 14.564-14.564 14.564zm-34-396.036h68a5 5 0 1 0 0-10h-68a5 5 0 1 0 0 10zm-17.997 0c1.31 0 2.6-.53 3.53-1.46.93-.94 1.47-2.22 1.47-3.54s-.54-2.6-1.47-3.54a5.034 5.034 0 0 0-3.53-1.46c-1.32 0-2.601.53-3.54 1.46-.93.93-1.46 2.22-1.46 3.54s.53 2.6 1.46 3.54c.93.93 2.22 1.46 3.54 1.46z"/></symbol><symbol viewBox="0 0 60 60" id="smartphone" xmlns="http://www.w3.org/2000/svg"><path d="M42.595 0h-25.19A4.411 4.411 0 0 0 13 4.405v51.189A4.411 4.411 0 0 0 17.405 60h25.189A4.411 4.411 0 0 0 47 55.595V4.405A4.411 4.411 0 0 0 42.595 0zM15 8h30v38H15V8zm2.405-6h25.189A2.408 2.408 0 0 1 45 4.405V6H15V4.405A2.408 2.408 0 0 1 17.405 2zm25.19 56h-25.19A2.408 2.408 0 0 1 15 55.595V48h30v7.595A2.408 2.408 0 0 1 42.595 58z"/><path d="M30 49c-2.206 0-4 1.794-4 4s1.794 4 4 4 4-1.794 4-4-1.794-4-4-4zm0 6c-1.103 0-2-.897-2-2s.897-2 2-2 2 .897 2 2-.897 2-2 2zM26 5h4a1 1 0 1 0 0-2h-4a1 1 0 1 0 0 2zm7 0h1a1 1 0 1 0 0-2h-1a1 1 0 1 0 0 2zm5 16c2.757 0 5-2.243 5-5s-2.243-5-5-5H22c-2.757 0-5 2.243-5 5v10.414L22.414 21H38zm-19 .586V16c0-1.654 1.346-3 3-3h16c1.654 0 3 1.346 3 3s-1.346 3-3 3H21.586L19 21.586zM38 28H22c-2.757 0-5 2.243-5 5s2.243 5 5 5h15.586L43 43.414V33c0-2.757-2.243-5-5-5zm3 10.586L38.414 36H22c-1.654 0-3-1.346-3-3s1.346-3 3-3h16c1.654 0 3 1.346 3 3v5.586z"/></symbol><symbol viewBox="0 0 490 490" id="train" xmlns="http://www.w3.org/2000/svg"><path d="M368.258 46.577l-21.972-26.211C335.429 7.42 319.52 0 302.631 0h-115.25c-16.887 0-32.797 7.42-43.655 20.366l-21.981 26.211c-79.506 94.854-79.846 248.899-1.044 344.276l-50.957 88.649L88.021 490l47.226-82.158c29.985 32.165 68.622 49.772 109.754 49.772h.01c41.133 0 79.77-17.607 109.739-49.782L401.992 490l18.277-10.497-50.967-88.647c78.802-95.378 78.454-249.432-1.044-344.279zM245.011 436.538h-.01c-63.691 0-107.099-57.949-107.099-57.949C34.452 242.756 95.177 95.83 159.883 33.909c7.691-7.36 16.857-12.833 27.498-12.833h115.25c10.642 0 19.774 5.521 27.498 12.833 50.746 48.041 135.761 194.898 21.992 344.67 0 0-39.766 57.959-107.11 57.959z"/><path d="M333.814 315.34l14.902 14.901-49.161 49.16-14.902-14.901 49.161-49.16zm-192.516 14.901l49.161 49.16L205.36 364.5l-49.16-49.16-14.902 14.901zm205.863-92.836c13.08-16.806 17.598-38.283 12.38-58.927l-14.902-58.947c-7.708-30.472-35.041-51.755-66.46-51.755l-66.347.011c-31.439 0-58.763 21.282-66.459 51.744l-14.913 58.958c-5.217 20.643-.7 42.11 12.38 58.916 13.08 16.796 32.788 26.428 54.081 26.428h96.16c21.293 0 41-9.632 54.08-26.428zm-187.688-12.957c-9.067-11.628-12.185-26.499-8.573-40.794l14.911-58.957c5.321-21.098 24.246-35.834 46.022-35.834l66.347-.011a47.419 47.419 0 0 1 46.022 35.845l14.902 58.947c3.611 14.295.493 29.176-8.573 40.804-9.056 11.64-22.702 18.309-37.449 18.309h-96.16c-14.748 0-28.394-6.669-37.449-18.309z"/></symbol><symbol viewBox="0 0 512 512" id="wallet" xmlns="http://www.w3.org/2000/svg"><path d="M211.5 494.62a10.071 10.071 0 0 0-7.07-2.93c-2.64 0-5.21 1.069-7.07 2.93-1.86 1.861-2.93 4.44-2.93 7.07s1.07 5.21 2.93 7.069c1.86 1.86 4.44 2.931 7.07 2.931s5.21-1.07 7.07-2.931c1.86-1.859 2.93-4.439 2.93-7.069s-1.07-5.21-2.93-7.07zM58 313.165c-5.523 0-10 4.477-10 10v92.833c0 5.522 4.477 10 10 10s10-4.478 10-10v-92.833c0-5.522-4.477-10-10-10zm7.07-38.735c-1.86-1.86-4.44-2.931-7.07-2.931s-5.21 1.07-7.07 2.931a10.056 10.056 0 0 0-2.93 7.069c0 2.63 1.07 5.21 2.93 7.07 1.86 1.86 4.44 2.93 7.07 2.93s5.21-1.069 7.07-2.93c1.86-1.861 2.93-4.44 2.93-7.07s-1.07-5.209-2.93-7.069z"/><path d="M512 270.69c0-23.943-17.267-43.917-40-48.157V157.69c0-27.57-22.43-50-50-50h-52.256L265.29 3.236c-3.905-3.904-10.237-3.904-14.143 0l-23.245 23.245-23.245-23.245c-3.905-3.904-10.237-3.904-14.142 0L85.44 108.312a9.96 9.96 0 0 0-3.44-.62H50c-27.57 0-50 22.43-50 50 0 .729.024 1.453.055 2.174A9.985 9.985 0 0 0 0 160.911v300.78c0 27.57 22.43 50 50 50h112.333c5.523 0 10-4.478 10-10s-4.477-10-10-10H50c-16.542 0-30-13.458-30-30V197.663c8.363 6.292 18.753 10.027 30 10.027l209.326.203H372.93c.326 0 .652-.017.976-.048l.057-.007c15.156 1.493 27.037 14.31 27.037 29.853v62H280c-27.57 0-50 22.43-50 50s22.43 50 50 50h121v62c0 16.542-13.458 30-30 30H246.333c-5.523 0-10 4.478-10 10s4.477 10 10 10H371c27.57 0 50-22.43 50-50v-4h1c27.57 0 50-22.43 50-50v-9.006c22.795-4.646 40-24.847 40-48.994v-77c0-.209-.006-.417-.019-.623.013-.458.019-.918.019-1.378zM238.81 43.861l19.409-19.41 21.429 21.429c-12.783 7.699-28.842 7.9-41.8.611a9.991 9.991 0 0 0 .962-2.63zM20 157.69c0-16.542 13.458-30 30-30h16.061l-43.063 43.063A29.82 29.82 0 0 1 20 157.69zm30 30a29.822 29.822 0 0 1-12.786-2.868L197.586 24.45l16.174 16.174L66.693 187.69H50zm94.379 0a62.573 62.573 0 0 1 4.344-4.825c11.809-11.81 27.511-18.313 44.211-18.313s32.402 6.504 44.211 18.313a62.76 62.76 0 0 1 4.344 4.825h-97.11zm209.335 0h-88.275a82.131 82.131 0 0 0-14.152-18.968c-15.587-15.587-36.311-24.171-58.354-24.171s-42.767 8.584-58.354 24.171a82.074 82.074 0 0 0-14.152 18.968h-25.45L222.365 60.304c10.673 7.662 23.26 11.506 35.854 11.506s25.181-3.843 35.854-11.506l65.298 65.298c-13.125 18.283-15.014 42.189-5.657 62.088zm20.082-4.805c-7.91-13.133-7.91-29.726 0-42.858l21.429 21.429-21.429 21.429zm18.641 9.643l24.001-24.001c3.905-3.905 3.905-10.237 0-14.143l-26.694-26.694H422c16.542 0 30 13.458 30 30v142h-31v-62c0-19.902-11.69-37.12-28.563-45.162zM452 407.69c0 16.542-13.458 30-30 30h-1v-38h31v8zm40-58c0 16.542-13.458 30-30 30H280c-16.542 0-30-13.458-30-30s13.458-30 30-30h183a48.741 48.741 0 0 0 29-9.525v39.525zm-20-51.437v-55.126c11.597 3.796 20 14.714 20 27.563s-8.403 23.767-20 27.563z"/><path d="M289.07 342.62c-1.86-1.86-4.44-2.93-7.07-2.93s-5.21 1.069-7.07 2.93c-1.86 1.86-2.93 4.44-2.93 7.07s1.07 5.21 2.93 7.069c1.86 1.86 4.44 2.931 7.07 2.931s5.21-1.07 7.07-2.931c1.86-1.859 2.93-4.439 2.93-7.069s-1.07-5.21-2.93-7.07zm4.506-216.522c-3.906-3.903-10.237-3.904-14.142 0l-17.38 17.38c-3.905 3.905-3.906 10.237 0 14.143a9.969 9.969 0 0 0 7.071 2.929 9.97 9.97 0 0 0 7.071-2.929l17.38-17.38c3.905-3.905 3.906-10.236 0-14.143z"/></symbol></svg>