<?xml version="1.0" encoding="utf-8"?><svg xmlns="http://www.w3.org/2000/svg" xmlns:xlink="http://www.w3.org/1999/xlink"><symbol viewBox="0 0 424.06 424.06" id="aeroplane" xmlns="http://www.w3.org/2000/svg"><path d="M423.125 36.86l-.8-7.6c-1.6-15.6-14.4-27.6-30.4-28.8l-6.4-.4c-19.2-.8-38 6.4-51.6 20l-64 63.6-209.6-.4c-17.6 0-34.8 7.2-47.6 20l-8.8 8.8c-2.8 2.8-4 7.6-3.2 11.6 1.2 4 4 7.2 8 8.4l166.8 45.6-38.8 38.8-70.4 2.4c-7.2 0-14 2.8-19.2 8.4l-6.8 6.8c-2.8 2.8-4 7.2-3.2 11.2 1.2 4 4 6.8 7.6 8.4l89.6 34 36 92.8c1.6 4 5.2 6.8 9.2 7.2 4 .4 7.6-.8 10.4-4l7.2-7.2c4.8-4.8 7.6-11.2 8.4-19.2l2.4-70.8 39.2-38.4 45.2 167.2c1.2 4 4.4 7.2 8.4 8.4 1.2.4 2 .4 3.2.4 3.2 0 6.4-1.2 8.8-3.6l8.8-8.8c12.8-12.8 20-30 20-48v-209.6l62-62.4c14.8-14.4 22-34.8 19.6-54.8zm-30.8 43.6l-64.8 64.8c-1.6 1.6-2.4 3.6-2.4 5.6v212.8c0 14-5.6 26.8-15.2 36.8l-4 4-47.6-173.2c-.8-2.8-2.8-4.8-5.6-5.6-.8 0-1.2-.4-2-.4-2 0-4 .8-5.6 2.4l-51.2 50.4c-1.6 1.6-2.4 3.2-2.4 5.6l-2.4 73.6c0 2.4-.8 6-3.6 8.4l-2.8 2.8-34.8-90c-.8-2-2.4-3.6-4.8-4.4l-86.8-33.2 2.4-2.4c1.2-1.2 4.4-3.6 8.4-3.6l74-2.4c2 0 4-.8 5.2-2.4l50.8-50.8c2-2 2.8-4.8 2-7.6-.8-2.8-2.8-4.8-5.6-5.6l-173.6-47.6 4-4c9.6-9.6 22.8-15.2 36.4-15.2l212.8.4c2 0 4-.8 5.6-2.4l66.4-66c10.4-10.4 24.8-16 39.6-15.2l6.4.4c8 .4 14.4 6.8 15.2 14.4l.8 7.6c1.6 15.6-3.6 30.8-14.8 42z"/></symbol><symbol viewBox="0 0 512 512" id="care" xmlns="http://www.w3.org/2000/svg"><path d="M476.379 343.416c-11.629-7.263-26.457-8.008-38.781-1.991L350.23 383.83v-4.608c0-22.15-16.967-39.603-39.117-39.603h-84.619c-17.265 0-34.919-2.873-51.411-7.976l-55.124-17.18v-22.227c0-7.105-4.688-13.079-11.793-13.079H30.982c-7.105 0-13.936 5.974-13.936 13.079v204.543c0 7.105 6.832 12.649 13.936 12.649h77.186c7.105 0 11.793-5.546 11.793-12.649v-20.594l9.203 6.855c23.314 18.75 53.165 28.96 83.085 28.96h74.352c26.605 0 52.282-7.813 74.255-22.81l116.866-79.707a39.42 39.42 0 0 0 17.232-32.594c0-13.714-6.944-26.209-18.575-33.473zM94.23 483.698H42.773V304.884H94.23v178.814zm368.988-95.409L346.352 467.94c-17.681 12.068-38.343 18.332-59.751 18.332h-74.352c-24.074 0-48.201-8.195-66.961-23.283l-25.329-19.823V341.395l47.517 14.825c18.959 5.869 39.171 9.127 59.019 9.127h84.619c7.963 0 13.388 5.911 13.388 13.874v15.552c-15.437 4.217-51.568 11.686-88.128 5.803-7.01-1.126-13.353 3.642-14.481 10.657-1.128 7.015 3.774 13.616 10.789 14.745 11.186 1.8 22.3 2.521 32.835 2.521 41.39 0 74.818-11.146 76.985-11.885a.23.23 0 0 1 .026-.003.771.771 0 0 1 .055-.015c.476-.163.937-.358 1.38-.57.032-.015.068-.024.099-.04l105.351-51.443c4.36-2.129 9.221-1.876 13.336.695s6.476 6.827 6.476 11.68a13.76 13.76 0 0 1-6.007 11.371zM36.692 169.017c11.632 7.263 25.6 8.014 37.923 1.998l86.511-42.398v4.608c0 22.15 18.682 40.444 40.833 40.444h84.619c17.266 0 34.061 2.452 50.553 7.557l54.267 16.76v22.227c0 7.105 6.403 12.633 13.508 12.633h77.186c7.105 0 12.221-5.528 12.221-12.633V15.669c-.001-7.105-5.117-13.096-12.222-13.096h-77.186c-7.105 0-13.508 5.991-13.508 13.096v20.594l-8.345-7.078C359.736 10.434 330.741 0 300.821 0h-74.352c-26.603 0-52.281 8.034-74.257 23.034L35.348 102.853a39.52 39.52 0 0 0-17.23 32.65c-.001 13.713 6.944 26.249 18.574 33.514zM417.125 28.302h51.457v178.814h-51.457V28.302zM49.853 124.156l116.866-79.873c17.682-12.068 38.345-18.554 59.751-18.554h74.352c24.074 0 47.345 8.417 66.105 23.506l24.469 20.047v101.771l-46.658-14.404c-18.958-5.869-38.314-8.708-58.161-8.708h-84.619c-7.963 0-15.104-6.753-15.104-14.716v-15.553c16.724-4.217 52.422-11.686 88.986-5.802 7.008 1.127 13.782-3.643 14.911-10.657 1.128-7.015-3.56-13.616-10.575-14.745-55.072-8.865-106.854 8.399-109.679 9.361-.005.001.012.003.006.005-.013.005-.023.012-.033.015-.266.091-.5.195-.726.304-.248.103-.498.188-.741.306l-105.35 51.443c-4.361 2.128-9.219 1.876-13.334-.695s-6.475-6.827-6.475-11.678a13.77 13.77 0 0 1 6.009-11.373z"/><path d="M261.715 212.807a40.42 40.42 0 0 0-20.281-5.478c-22.251 0-40.354 18.103-40.354 40.355 0 13.198 9.126 28.265 27.899 46.065 12.454 11.807 24.756 20.602 25.273 20.971a12.847 12.847 0 0 0 7.463 2.386 12.85 12.85 0 0 0 7.463-2.386c.517-.369 12.819-9.164 25.273-20.971 18.773-17.798 27.899-32.866 27.899-46.065 0-22.251-18.103-40.355-40.355-40.355a40.411 40.411 0 0 0-20.28 5.478zm34.906 34.879c0 8.187-17.173 26.454-34.911 40.469-17.736-13.995-34.9-32.253-34.9-40.469 0-8.066 6.561-14.627 14.625-14.627 4.151 0 7.984 1.689 10.792 4.757a12.862 12.862 0 0 0 18.976-.001c2.808-3.067 6.641-4.756 10.791-4.756 8.065 0 14.627 6.562 14.627 14.627z"/></symbol><symbol viewBox="0 0 472.811 472.811" id="phone" xmlns="http://www.w3.org/2000/svg"><path d="M358.75 0H114.061C97.555 0 84.128 13.428 84.128 29.934v412.944c0 16.505 13.428 29.934 29.934 29.934H358.75c16.506 0 29.934-13.428 29.934-29.934V29.934C388.683 13.428 375.256 0 358.75 0zM99.128 75.236h274.556v312.687H99.128V75.236zM114.061 15H358.75c8.234 0 14.934 6.699 14.934 14.934v35.302H99.128V29.934c0-8.235 6.699-14.934 14.933-14.934zM358.75 457.811H114.061c-8.234 0-14.934-6.699-14.934-14.934v-44.955h274.556v44.955c0 8.235-6.699 14.934-14.933 14.934z"/><path d="M236.406 404.552c-13.545 0-24.564 11.02-24.564 24.565s11.02 24.564 24.564 24.564 24.564-11.02 24.564-24.564-11.019-24.565-24.564-24.565zm0 39.129c-8.031 0-14.564-6.534-14.564-14.564 0-8.031 6.533-14.565 14.564-14.565s14.564 6.534 14.564 14.565c0 8.03-6.533 14.564-14.564 14.564zm-34-396.036h68a5 5 0 1 0 0-10h-68a5 5 0 1 0 0 10zm-17.997 0c1.31 0 2.6-.53 3.53-1.46.93-.94 1.47-2.22 1.47-3.54s-.54-2.6-1.47-3.54a5.034 5.034 0 0 0-3.53-1.46c-1.32 0-2.601.53-3.54 1.46-.93.93-1.46 2.22-1.46 3.54s.53 2.6 1.46 3.54c.93.93 2.22 1.46 3.54 1.46z"/></symbol><symbol viewBox="0 0 512 512" id="stadium" xmlns="http://www.w3.org/2000/svg"><path d="M256 366c-5.52 0-10 4.48-10 10s4.48 10 10 10 10-4.48 10-10-4.48-10-10-10z"/><path d="M449 168.66V126h10c13.35 0 25.904-5.202 35.351-14.648C503.797 101.904 509 89.35 509 76c0-5.522-4.477-10-10-10h-60c-5.523 0-10 4.478-10 10v87.371c-29.571-6.998-65.256-12.128-104.372-14.945-19.15-1.377-38.85-2.16-58.628-2.359V106h10c13.35 0 25.904-5.202 35.351-14.648C320.797 81.904 326 69.35 326 56c0-5.522-4.477-10-10-10h-60c-5.523 0-10 4.478-10 10v90.067c-19.778.198-39.478.981-58.628 2.359-39.115 2.817-74.8 7.947-104.372 14.945V126h10c13.35 0 25.904-5.202 35.351-14.648C137.797 101.904 143 89.35 143 76c0-5.522-4.477-10-10-10H73c-5.523 0-10 4.478-10 10v92.661C21.195 181.083 0 196.998 0 216v180c0 15.208 13.605 28.497 40.437 39.497 43.122 17.679 108.046 25.664 154.933 28.613 19.854 1.254 40.253 1.89 60.63 1.89s40.776-.636 60.627-1.89c46.36-2.915 111.663-10.872 154.936-28.613C498.395 424.497 512 411.208 512 396V216c0-19.002-21.194-34.917-63-47.34zM449 86h38.298a29.922 29.922 0 0 1-7.089 11.209C474.54 102.878 467.007 106 459 106h-10V86zM266 66h38.298a29.922 29.922 0 0 1-7.089 11.209C291.54 82.878 284.007 86 276 86h-10V66zM83 86h38.298a29.922 29.922 0 0 1-7.089 11.209C108.54 102.878 101.007 106 93 106H83V86zm246.452 82.856c32.933 2.607 63.103 6.887 88.757 12.559l-44.378 31.697c-20.623-2.847-44.424-4.905-69.852-6.048l25.473-38.208zM256 166c16.942 0 33.84.446 50.433 1.329l-25.968 38.951a1099.421 1099.421 0 0 0-48.931 0l-25.968-38.951A952.54 952.54 0 0 1 256 166zm-73.452 2.855l25.473 38.208c-25.424 1.143-49.235 3.199-69.863 6.041l-44.367-31.689c25.654-5.672 55.824-9.952 88.757-12.56zM68.463 187.903l41.903 29.929c-9.286 1.952-17.205 4.088-23.65 6.391-8.865 3.167-20.591 8.467-22.96 18.45C29.873 231.925 20 221.056 20 216c0-5.194 10.365-16.75 48.463-28.097zM123 436.124C48.21 424.051 20 405.383 20 396v-31.11c5.699 3.699 12.599 7.208 20.709 10.511 20.601 8.39 48.929 15.544 82.291 20.822v39.901zm0-60.157c-30.482-4.978-56.165-11.521-74.747-19.089C27.399 348.384 20 340.322 20 336v-30.934c5.635 3.673 12.444 7.154 20.437 10.431 20.591 8.442 49.012 15.611 82.563 20.868v39.602zm0-59.843C48.21 304.051 20 285.383 20 276v-30.862c14.795 9.633 37.757 17.936 68.787 24.836 10.676 2.365 22.159 4.506 34.213 6.393v39.757zm63 127.285c-14.837-1.114-29.235-2.577-43-4.376v-39.948c13.788 1.778 28.174 3.236 43 4.348v39.976zm1.123-59.949c-15.256-1.151-30.03-2.671-44.123-4.54v-39.728c20.71 2.628 42.69 4.527 65.262 5.638-.343.32-.694.627-1.031.955-10.591 10.288-17.534 23.401-20.108 37.675zM143 319.031v-39.84c32.14 4.078 67.336 6.387 103 6.752v39.999c-35.783-.373-71.026-2.737-103-6.911zm163 125.655a947.905 947.905 0 0 1-40 1.248V416c0-5.522-4.477-10-10-10s-10 4.478-10 10v29.934a947.905 947.905 0 0 1-40-1.248V396c0-.524.008-1.048.025-1.58C206.867 367.269 228.818 346 256 346c13.352 0 25.91 5.201 35.356 14.639 9.032 9.04 14.224 21.037 14.619 33.789.017.524.025 1.048.025 1.572v48.686zm63-5.654c-13.763 1.8-28.161 3.263-43 4.377v-39.976c14.827-1.112 29.214-2.571 43-4.348v39.947zm0-60.113c-14.093 1.87-28.871 3.391-44.131 4.541-2.518-13.927-9.2-26.784-19.371-36.964-.572-.572-1.163-1.117-1.752-1.667 22.57-1.111 44.546-3.01 65.254-5.638v39.728zm0-59.889c-31.973 4.175-67.216 6.539-103 6.912v-39.999c35.685-.365 70.881-2.676 103-6.754v39.841zM256 266c-42.381 0-84.399-2.812-121.514-8.13-13.482-1.928-26.266-4.187-38.076-6.712a10.01 10.01 0 0 0-1.838-.908c-4.158-1.55-6.898-2.883-8.683-3.912 26.537-14.452 110.096-19.098 140.66-19.932 19.313-.539 39.583-.539 58.908 0 33.239.907 64.292 3.365 89.803 7.108 32.158 4.711 45.533 9.958 50.8 12.836-2.254 1.303-6.051 3.095-12.318 5.199-11.35 2.384-23.517 4.507-36.193 6.312C340.453 263.186 298.421 266 256 266zm236 130c0 9.382-28.209 28.051-103 40.123v-39.901c33.365-5.279 61.692-12.432 82.291-20.822 8.11-3.303 15.01-6.811 20.709-10.511V396zm0-60c0 4.322-7.399 12.384-28.253 20.878-18.58 7.567-44.261 14.11-74.747 19.089v-39.602c33.552-5.257 61.973-12.426 82.563-20.868 7.992-3.277 14.801-6.758 20.437-10.431V336zm0-60c0 9.382-28.21 28.051-103 40.123v-39.754c30.682-4.795 77.116-14.354 103-31.207V276zm-43.817-33.297c-2.384-10.12-14.423-15.481-23.555-18.687-6.332-2.222-14.027-4.287-23.005-6.176l41.915-29.938C481.635 199.25 492 210.806 492 216c0 5.148-9.966 15.997-43.817 26.703z"/></symbol><symbol viewBox="0 0 490 490" id="train" xmlns="http://www.w3.org/2000/svg"><path d="M368.258 46.577l-21.972-26.211C335.429 7.42 319.52 0 302.631 0h-115.25c-16.887 0-32.797 7.42-43.655 20.366l-21.981 26.211c-79.506 94.854-79.846 248.899-1.044 344.276l-50.957 88.649L88.021 490l47.226-82.158c29.985 32.165 68.622 49.772 109.754 49.772h.01c41.133 0 79.77-17.607 109.739-49.782L401.992 490l18.277-10.497-50.967-88.647c78.802-95.378 78.454-249.432-1.044-344.279zM245.011 436.538h-.01c-63.691 0-107.099-57.949-107.099-57.949C34.452 242.756 95.177 95.83 159.883 33.909c7.691-7.36 16.857-12.833 27.498-12.833h115.25c10.642 0 19.774 5.521 27.498 12.833 50.746 48.041 135.761 194.898 21.992 344.67 0 0-39.766 57.959-107.11 57.959z"/><path d="M333.814 315.34l14.902 14.901-49.161 49.16-14.902-14.901 49.161-49.16zm-192.516 14.901l49.161 49.16L205.36 364.5l-49.16-49.16-14.902 14.901zm205.863-92.836c13.08-16.806 17.598-38.283 12.38-58.927l-14.902-58.947c-7.708-30.472-35.041-51.755-66.46-51.755l-66.347.011c-31.439 0-58.763 21.282-66.459 51.744l-14.913 58.958c-5.217 20.643-.7 42.11 12.38 58.916 13.08 16.796 32.788 26.428 54.081 26.428h96.16c21.293 0 41-9.632 54.08-26.428zm-187.688-12.957c-9.067-11.628-12.185-26.499-8.573-40.794l14.911-58.957c5.321-21.098 24.246-35.834 46.022-35.834l66.347-.011a47.419 47.419 0 0 1 46.022 35.845l14.902 58.947c3.611 14.295.493 29.176-8.573 40.804-9.056 11.64-22.702 18.309-37.449 18.309h-96.16c-14.748 0-28.394-6.669-37.449-18.309z"/></symbol></svg>